# xmcd CD database file
#
# Track frame offsets:
#	150
#	14625
#	28820
#	37845
#	51165
#	67160
#	83735
#	97990
#	111340
#	125700
#	139465
#	154430
#	170170
#	182090
#	196105
#	210980
#	225290
#	234645
#	246505
#	263425
#	277492
#	293634
#
# Disc length: 4151 seconds
#
# Revision: 0
# Processed by: cddbd v1.5.2PL0 Copyright (c) Steve Scherf et al.
# Submitted via: CDex 1.79
#
DISCID=4a103516
DTITLE=Steve Lacy - The Complete Whitey Mitchell Sessions
DYEAR=1900
DGENRE=Jazz
TTITLE0=It Could Happen To You
TTITLE1=Lover Man
TTITLE2=Strike Up The Band
TTITLE3=I Let A Song Go Out Of My Heart
TTITLE4=Once In A While
TTITLE5=Young Lesley
TTITLE6=You Stepped Out Of A Dream
TTITLE7=Over The Rainbow
TTITLE8=Perdido
TTITLE9=Why Don't You Take Up The Picolo?
TTITLE10=Rosetta
TTITLE11=Gee Baby, Ain't I Good To You
TTITLE12=Out Of Nowhere
TTITLE13=My Heart Is A Hobo
TTITLE14=Fidgety Feet
TTITLE15=Potatoes
TTITLE16=Let's Get Lost
TTITLE17=Spain
TTITLE18=The Things I Love
TTITLE19=Some Of These Days
TTITLE20=Give Me The Simple Life
TTITLE21=Indian Blanket
EXTD=
EXTT0=
EXTT1=
EXTT2=
EXTT3=
EXTT4=
EXTT5=
EXTT6=
EXTT7=
EXTT8=
EXTT9=
EXTT10=
EXTT11=
EXTT12=
EXTT13=
EXTT14=
EXTT15=
EXTT16=
EXTT17=
EXTT18=
EXTT19=
EXTT20=
EXTT21=
PLAYORDER=
